<?xml version="1.0" standalone="no"?>
<!DOCTYPE svg PUBLIC "-//W3C//DTD SVG 20010904//EN"
 "http://www.w3.org/TR/2001/REC-SVG-20010904/DTD/svg10.dtd">
<svg version="1.0" xmlns="http://www.w3.org/2000/svg"
 width="128.000000pt" height="128.000000pt" viewBox="0 0 128.000000 128.000000"
 preserveAspectRatio="xMidYMid meet">
<metadata>
Created by potrace 1.14, written by Peter Selinger 2001-2017
</metadata>
<g transform="translate(0.000000,128.000000) scale(0.100000,-0.100000)"
fill="#000000" stroke="none">
<path d="M412 1042 c26 -103 47 -192 48 -198 0 -6 -60 9 -132 34 -73 24 -153
50 -178 58 l-45 15 85 -78 c183 -167 203 -189 181 -190 -34 -3 -283 -54 -305
-63 -20 -8 -20 -9 4 -10 14 -1 32 -3 40 -5 19 -5 200 -46 220 -50 8 -2 21 -4
28 -4 20 -2 15 -17 -52 -134 -119 -211 -118 -209 -98 -198 11 6 78 46 151 90
84 51 133 76 136 68 3 -10 9 -136 15 -307 0 -14 28 45 63 133 l63 159 73 -111
c97 -146 100 -148 96 -64 -7 155 -8 214 -3 218 3 3 58 -16 124 -41 153 -59
159 -61 149 -43 -5 7 -41 54 -79 104 -39 49 -81 104 -93 121 l-22 31 132 73
c73 41 148 82 167 93 52 28 56 35 19 32 -73 -6 -359 -16 -359 -12 0 4 98 214
107 230 9 15 -27 -8 -116 -72 -46 -34 -87 -61 -91 -61 -3 0 -3 35 1 78 12 118
19 242 15 242 -2 0 -37 -58 -77 -130 -40 -71 -75 -130 -78 -130 -3 0 -55 68
-116 151 -60 83 -112 152 -115 154 -4 2 15 -80 42 -183z"/>
</g>
</svg>
